<?xml version="1.0" encoding="utf-8"?>
<!-- Generator: Adobe Illustrator 21.0.0, SVG Export Plug-In . SVG Version: 6.00 Build 0)  -->
<svg version="1.1" xmlns="http://www.w3.org/2000/svg" xmlns:xlink="http://www.w3.org/1999/xlink" x="0px" y="0px"
	 viewBox="0 0 42 42" style="enable-background:new 0 0 42 42;" xml:space="preserve">
<style type="text/css">
	.st0{fill:#FFDE17;}
	.st1{fill:none;stroke:#FFFFFF;stroke-width:0.7756;stroke-linecap:round;stroke-linejoin:round;stroke-miterlimit:10;}
	.st2{fill:#FFFFFF;}
	.st3{fill:none;stroke:#FFFFFF;stroke-width:1.5649;stroke-linecap:round;stroke-linejoin:round;}
	.st4{fill:none;stroke:#FFFFFF;stroke-width:1.9619;stroke-linecap:round;stroke-linejoin:round;}
	.st5{fill:none;stroke:#000000;stroke-width:1.0701;stroke-linecap:round;stroke-linejoin:round;stroke-miterlimit:10;}
	.st6{fill:none;stroke:#FFFFFF;stroke-width:1.3882;stroke-linecap:round;stroke-linejoin:round;stroke-miterlimit:10;}
	.st7{fill:none;stroke:#000000;stroke-width:0.8098;stroke-linecap:round;stroke-linejoin:round;stroke-miterlimit:10;}
	.st8{fill:none;stroke:#FFFFFF;stroke-width:1.145;stroke-linecap:round;stroke-linejoin:round;stroke-miterlimit:10;}
	.st9{fill:none;stroke:#000000;stroke-width:0.6679;stroke-linecap:round;stroke-linejoin:round;stroke-miterlimit:10;}
	.st10{clip-path:url(#SVGID_2_);}
	.st11{fill:none;stroke:#FFFFFF;stroke-width:0.4627;stroke-linecap:round;stroke-linejoin:round;stroke-miterlimit:10;}
	.st12{clip-path:url(#SVGID_4_);}
	.st13{fill:none;stroke:#FFFFFF;stroke-width:0.3361;stroke-miterlimit:10;}
</style>
<g id="Guides_For_Artboard">
</g>
<g id="Layer_1">
	<g id="Meat_1_">
		<path d="M13.2,10.6l-2.7,2.7c-0.3,0.5-0.2,1.2,0.2,1.7c0.3,0.3,0.6,0.4,1,0.4c0.4,0,0.7-0.1,1-0.4l2.1-2.2c0.5-0.5,0.5-1.4,0-2
			C14.5,10.3,13.8,10.3,13.2,10.6z"/>
		<path d="M38.5,27.7c-0.9-0.9-2-1.4-3.3-1.4c-0.8,0-1.5,0.2-2.2,0.5l-1.3-1.3c0.9-2.1,2-6.5,0.2-10.9c-0.7-1.7-1.8-3.3-3.2-4.7
			l-6.4-6.4c0,0,0,0,0,0c0,0,0,0,0,0l-0.1-0.1c0,0-0.1-0.1-0.1-0.1c-0.9-0.9-2.2-1.3-3.7-1.3c-3.3,0-7.4,2.1-10.8,5.5
			c-2.4,2.4-4.2,5.1-5,7.8c-0.9,2.9-0.6,5.4,1,6.9c0.2,0.2,0.3,0.3,0.5,0.4l5.9,5.9c2.8,2.8,6.2,4.2,9.8,4.2h0
			c2.4,0,4.5-0.6,5.8-1.2l1.3,1.3c-0.9,1.8-0.7,4,0.8,5.5c0.9,0.9,2,1.4,3.3,1.4h0c1.2,0,2.4-0.5,3.3-1.4c0.8-0.8,1.2-1.8,1.3-2.8
			c1.1-0.1,2.1-0.6,2.8-1.3C40.3,32.5,40.3,29.5,38.5,27.7z M17.3,17.3C12.7,22,7,23.8,4.6,21.4C2.2,19,4,13.3,8.6,8.6
			c4.6-4.6,10.3-6.4,12.7-4C23.7,7,21.9,12.7,17.3,17.3z M36.5,32.3c-0.5,0.5-1.3,0.7-1.9,0.4c-0.5-0.2-1.1-0.1-1.5,0.3
			c-0.4,0.4-0.5,1-0.3,1.5c0.2,0.7,0.1,1.4-0.4,1.9C32,36.8,31.5,37,31.1,37c0,0,0,0,0,0c-0.5,0-1-0.2-1.3-0.5
			c-0.7-0.7-0.7-1.9,0-2.6c0,0,0,0,0,0c0.3-0.3,0.4-0.6,0.4-1c0-0.4-0.1-0.7-0.4-1L27.9,30l2.1-2.1l1.9,1.9c0.3,0.3,0.6,0.4,1,0.4
			c0.4,0,0.7-0.1,1-0.4c0,0,0,0,0,0c0.7-0.7,1.9-0.7,2.6,0C37.2,30.4,37.2,31.6,36.5,32.3z"/>
	</g>
</g>
</svg>
