<?xml version="1.0" encoding="utf-8"?>
<!-- Generator: Adobe Illustrator 21.0.0, SVG Export Plug-In . SVG Version: 6.00 Build 0)  -->
<svg version="1.1" xmlns="http://www.w3.org/2000/svg" xmlns:xlink="http://www.w3.org/1999/xlink" x="0px" y="0px"
	 viewBox="0 0 42 42" style="enable-background:new 0 0 42 42;" xml:space="preserve">
<style type="text/css">
	.st0{fill:#FFDE17;}
	.st1{fill:none;stroke:#FFFFFF;stroke-width:0.7756;stroke-linecap:round;stroke-linejoin:round;stroke-miterlimit:10;}
	.st2{fill:#FFFFFF;}
	.st3{fill:none;stroke:#FFFFFF;stroke-width:1.5649;stroke-linecap:round;stroke-linejoin:round;}
	.st4{fill:none;stroke:#FFFFFF;stroke-width:1.9619;stroke-linecap:round;stroke-linejoin:round;}
	.st5{fill:none;stroke:#000000;stroke-width:1.0701;stroke-linecap:round;stroke-linejoin:round;stroke-miterlimit:10;}
	.st6{fill:none;stroke:#FFFFFF;stroke-width:1.3882;stroke-linecap:round;stroke-linejoin:round;stroke-miterlimit:10;}
	.st7{fill:none;stroke:#000000;stroke-width:0.8098;stroke-linecap:round;stroke-linejoin:round;stroke-miterlimit:10;}
	.st8{fill:none;stroke:#FFFFFF;stroke-width:1.145;stroke-linecap:round;stroke-linejoin:round;stroke-miterlimit:10;}
	.st9{fill:none;stroke:#000000;stroke-width:0.6679;stroke-linecap:round;stroke-linejoin:round;stroke-miterlimit:10;}
	.st10{clip-path:url(#SVGID_2_);}
	.st11{fill:none;stroke:#FFFFFF;stroke-width:0.4627;stroke-linecap:round;stroke-linejoin:round;stroke-miterlimit:10;}
	.st12{clip-path:url(#SVGID_4_);}
	.st13{fill:none;stroke:#FFFFFF;stroke-width:0.3361;stroke-miterlimit:10;}
</style>
<g id="Guides_For_Artboard">
</g>
<g id="Layer_1">
	<g>
		<g>
			<path d="M21,14.1c-11.4,0-20.6,4.2-20.6,9.3s9.2,9.3,20.6,9.3c11.4,0,20.6-4.2,20.6-9.3S32.4,14.1,21,14.1z M21,29.3
				c-9.3,0-16.9-3.2-16.9-7.1c0-3.9,7.6-4.8,16.9-4.8c9.3,0,16.9,0.9,16.9,4.8C37.9,26.1,30.3,29.3,21,29.3z"/>
			<g>
				<g>
					<path class="st1" d="M40,19.4c-0.1,0-0.3-0.1-0.4-0.2C38.7,18,36.2,19,36.2,19c-0.3,0.1-0.5,0-0.6-0.3c-0.1-0.3,0-0.6,0.3-0.7
						c0.1,0,3.1-1.2,4.5,0.6c0.2,0.2,0.2,0.6-0.1,0.8C40.2,19.4,40.1,19.4,40,19.4z"/>
					<path d="M40,19.4c-0.1,0-0.3-0.1-0.4-0.2C38.7,18,36.2,19,36.2,19c-0.3,0.1-0.5,0-0.6-0.3c-0.1-0.3,0-0.6,0.3-0.7
						c0.1,0,3.1-1.2,4.5,0.6c0.2,0.2,0.2,0.6-0.1,0.8C40.2,19.4,40.1,19.4,40,19.4z"/>
				</g>
				<g>
					<path d="M35.2,23.7c-3.7,2.4-12.2,6.5-24.5,2.4c-1.9-0.6-3.7-1.8-5.2-3.3c-1.8-1.9-3.4-4.7-2.6-8.5c0.1-0.6,0.7-0.9,1.2-0.6
						c1.1,0.6,3.1,1.4,4.3-0.1c0.3-0.5,0.7-0.9,1.1-1.3c2-2.1,4.7-3.2,7.5-3c2,0.1,4.5,0.8,7.2,2.7c0,0,0.3,1.3-2.3,2.2
						c-0.3,0.1-0.2,0.5,0.1,0.5c1.3-0.1,3-0.3,4.3-0.9c2.1-0.9,6-0.3,7.6,0.1c1.1,0.2,2.1,0.8,2.8,1.8c0.4,0.5,0.7,1.2,0.9,2.1
						C38,20,37,22.4,35.2,23.7z"/>
					<g>
						<path d="M19.8,22.2c0.3,1.5,1,2.9,2.1,3.9c0.3,0.3,0.6,0.6,0.9,0.9c0.3,0.3,0.5,0.7,0.6,1.2c0,0.2,0,0.5-0.1,0.7
							c-0.2,0.3-0.8,0.8-1.1,0.9c-0.9,0.2-2.1-0.2-2.9-0.7c-0.8-0.5-1.5-1.2-2-2.1c-0.6-0.8-1-1.7-1.1-2.7"/>
						<path class="st2" d="M19.6,22.3c0.3,1.1,0.6,2,1.2,2.9c0.6,0.8,2.8,2.4,2.2,3.7c-0.7,1.4-3.1,0.3-3.9-0.4
							c-1.3-1-2.4-2.6-2.6-4.2c-0.1-0.4-0.6-0.2-0.6,0.2c0.4,2.7,3.8,6.9,6.7,5.6c0.9-0.4,1.4-1.3,1-2.3c-0.3-0.8-0.9-1.3-1.5-1.8
							c-1-1-1.6-2.3-2-3.7C20,21.7,19.5,21.9,19.6,22.3L19.6,22.3z"/>
					</g>
					<g>
						<path d="M30.6,23.1c0.9,2.2,2.7,3.7,4.8,4.5c0.4,0.2,0.8,0.3,1.3,0.2c0.4,0,1.3-0.3,1.3-0.8c0-0.5-0.2-0.9-0.5-1.3
							c-0.2-0.4-0.3-0.7-0.6-1c-0.5-0.6-0.8-0.6-0.9-1.4"/>
						<path class="st2" d="M30.4,23.3c1,2.3,3.7,5.1,6.3,4.9c0.6-0.1,1.4-0.3,1.5-1.1c0.2-1.5-1.7-2.5-2-3.8
							c-0.1-0.4-0.7-0.2-0.6,0.2c0.2,0.7,0.5,1,1,1.5c0.3,0.4,0.7,0.9,0.8,1.4c0.3,1.2-0.7,1.3-1.6,1.1c-2.1-0.5-4.1-2.4-5-4.5
							C30.7,22.6,30.2,22.9,30.4,23.3L30.4,23.3z"/>
					</g>
				</g>
				<path class="st2" d="M9.4,15.9c0.5-0.3,1.2-0.1,1.5,0.5c0.2,0.4,0.7,0,0.5-0.3c-0.5-0.9-1.5-1.2-2.3-0.7
					C8.7,15.5,9,16.1,9.4,15.9L9.4,15.9z"/>
			</g>
		</g>
		<path class="st2" d="M5.3,15.7c-0.1,0.5-0.4,0.9-0.6,0.9c-0.2,0-0.3-0.5-0.2-1.1c0.1-0.5,0.4-0.9,0.6-0.9
			C5.3,14.7,5.4,15.1,5.3,15.7z"/>
	</g>
</g>
</svg>
