<?xml version="1.0" encoding="utf-8"?>
<!-- Generator: Adobe Illustrator 21.0.0, SVG Export Plug-In . SVG Version: 6.00 Build 0)  -->
<svg version="1.1" xmlns="http://www.w3.org/2000/svg" xmlns:xlink="http://www.w3.org/1999/xlink" x="0px" y="0px"
	 viewBox="0 0 42 42" style="enable-background:new 0 0 42 42;" xml:space="preserve">
<style type="text/css">
	.st0{fill:#FFDE17;}
	.st1{fill:none;stroke:#FFFFFF;stroke-width:0.7756;stroke-linecap:round;stroke-linejoin:round;stroke-miterlimit:10;}
	.st2{fill:#FFFFFF;}
	.st3{fill:none;stroke:#FFFFFF;stroke-width:1.5649;stroke-linecap:round;stroke-linejoin:round;}
	.st4{fill:none;stroke:#FFFFFF;stroke-width:1.9619;stroke-linecap:round;stroke-linejoin:round;}
	.st5{fill:none;stroke:#000000;stroke-width:1.0701;stroke-linecap:round;stroke-linejoin:round;stroke-miterlimit:10;}
	.st6{fill:none;stroke:#FFFFFF;stroke-width:1.3882;stroke-linecap:round;stroke-linejoin:round;stroke-miterlimit:10;}
	.st7{fill:none;stroke:#000000;stroke-width:0.8098;stroke-linecap:round;stroke-linejoin:round;stroke-miterlimit:10;}
	.st8{fill:none;stroke:#FFFFFF;stroke-width:1.145;stroke-linecap:round;stroke-linejoin:round;stroke-miterlimit:10;}
	.st9{fill:none;stroke:#000000;stroke-width:0.6679;stroke-linecap:round;stroke-linejoin:round;stroke-miterlimit:10;}
	.st10{clip-path:url(#SVGID_2_);}
	.st11{fill:none;stroke:#FFFFFF;stroke-width:0.4627;stroke-linecap:round;stroke-linejoin:round;stroke-miterlimit:10;}
	.st12{clip-path:url(#SVGID_4_);}
	.st13{fill:none;stroke:#FFFFFF;stroke-width:0.3361;stroke-miterlimit:10;}
</style>
<g id="Guides_For_Artboard">
</g>
<g id="Layer_1">
	<g id="Fish_01_1_">
		<path d="M39.5,26.2c-2.3-2.3-4.8-3.5-7.4-3.5c-1.1,0-2,0.2-2.7,0.5c-1.5-5.3-3.7-11.5-7.8-15.5C17,3.1,11.6,2.2,7.8,2.2
			C5.6,2.2,4,2.5,3.6,2.6c0,0-0.1,0-0.1,0C3.3,2.7,3.2,2.7,3,2.8C2.8,3,2.7,3.2,2.6,3.5c0,0,0,0.1,0,0.1c-0.3,1.1-2.2,10.7,5.1,18
			c4,4,10.2,6.3,15.5,7.8c-0.9,2.4-0.8,6.2,3,10.1c0.2,0.2,0.5,0.4,0.9,0.4c0,0,0,0,0,0c0.9,0,1.1-0.7,1.3-1.2
			c0.1-0.2,0.2-0.6,0.3-1c0.3-0.8,0.6-1.9,1-2.9c0.5-1.5,1-2.9,1.3-3.7c0.8-0.3,2.3-0.8,3.7-1.3c1.1-0.4,2.1-0.7,2.9-1
			c1.8-0.6,2-0.7,2.1-1.4C39.9,27,39.8,26.5,39.5,26.2z M4.9,4.9c0.6-0.1,1.7-0.2,2.9-0.2c2.7,0,6.4,0.6,9.9,3
			c-1.1,2-2.6,3.9-4.4,5.7c-1.7,1.7-3.7,3.2-5.7,4.4C4,12.6,4.5,6.9,4.9,4.9z"/>
		<path d="M9.6,12.1c0.7,0,1.3-0.3,1.8-0.7c0.5-0.5,0.7-1.1,0.7-1.8c0-0.7-0.3-1.3-0.7-1.8c-0.5-0.5-1.1-0.7-1.8-0.7
			C9,7.1,8.3,7.4,7.9,7.9C7.4,8.3,7.1,9,7.1,9.6c0,0.7,0.3,1.3,0.7,1.8C8.3,11.9,9,12.1,9.6,12.1z"/>
	</g>
</g>
</svg>
